<?xml version="1.0" encoding="utf-8"?>
<!-- Generator: Adobe Illustrator 27.0.1, SVG Export Plug-In . SVG Version: 6.00 Build 0)  -->
<svg version="1.1" id="Layer_1" xmlns="http://www.w3.org/2000/svg" xmlns:xlink="http://www.w3.org/1999/xlink" x="0px" y="0px"
	 viewBox="0 0 80 80" style="enable-background:new 0 0 80 80;" xml:space="preserve">
<g>
	<path d="M31,35.4c-2.7,0-4.9,2.5-4.9,5.6s2.2,5.6,4.9,5.6c2.7,0,4.9-2.5,4.9-5.6C35.9,37.9,33.7,35.4,31,35.4z"/>
	<path d="M49,35.4c-2.7,0-4.9,2.5-4.9,5.6s2.2,5.6,4.9,5.6s4.9-2.5,4.9-5.6C54,37.9,51.7,35.4,49,35.4z"/>
	<path d="M40,5C20.7,5,5,20.7,5,40s15.7,35,35,35s35-15.7,35-35S59.3,5,40,5z M53.2,60.1c-1.1-1.5-2.1-3.1-3-4.8
		c1.6-0.6,3.2-1.4,4.7-2.3c-0.4-0.3-0.8-0.6-1.2-0.9c-8.9,4.2-18.6,4.2-27.5,0c-0.4,0.3-0.8,0.6-1.2,0.9c1.5,0.9,3,1.6,4.7,2.3
		c-0.9,1.7-1.9,3.3-3,4.8c-4.5-1.4-9-3.6-13.8-7.1c-0.9-10.3,0.9-20.8,8.1-31.6c3.6-1.6,7.3-2.8,11.3-3.5c0.5,0.9,1.1,2,1.5,3
		c4.1-0.6,8.2-0.6,12.4,0c0.4-0.9,0.9-2.1,1.4-3c3.9,0.6,7.7,1.9,11.2,3.5C65,30.7,68.1,41,67,53C62.3,56.6,57.7,58.7,53.2,60.1z"/>
</g>
</svg>
