<?xml version="1.0" encoding="utf-8"?>
<!-- Generator: Adobe Illustrator 27.0.1, SVG Export Plug-In . SVG Version: 6.00 Build 0)  -->
<svg version="1.1" id="Layer_1" xmlns="http://www.w3.org/2000/svg" xmlns:xlink="http://www.w3.org/1999/xlink" x="0px" y="0px"
	 viewBox="0 0 80 80" style="enable-background:new 0 0 80 80;" xml:space="preserve">
<style type="text/css">
	.st0{fill-rule:evenodd;clip-rule:evenodd;fill:#272525;}
</style>
<path class="st0" d="M40,5C20.7,5,5,20.7,5,40c0,15.5,10,28.6,23.9,33.2c1.8,0.3,2.4-0.8,2.4-1.7c0-0.8,0-3,0-6
	c-9.7,2.1-11.8-4.7-11.8-4.7c-1.6-4-3.9-5.1-3.9-5.1c-3.2-2.2,0.2-2.1,0.2-2.1c3.5,0.2,5.4,3.6,5.4,3.6c3.1,5.3,8.2,3.8,10.2,2.9
	c0.3-2.3,1.2-3.8,2.2-4.7c-7.8-0.9-15.9-3.9-15.9-17.3c0-3.8,1.4-6.9,3.6-9.4c-0.4-0.9-1.6-4.4,0.3-9.3c0,0,2.9-0.9,9.6,3.6
	c2.8-0.8,5.8-1.2,8.8-1.2c3,0,6,0.4,8.8,1.2c6.7-4.5,9.6-3.6,9.6-3.6c1.9,4.8,0.7,8.4,0.3,9.3c2.2,2.4,3.6,5.6,3.6,9.4
	c0,13.4-8.2,16.4-16,17.3c1.3,1.1,2.4,3.2,2.4,6.5c0,4.7,0,8.5,0,9.6c0,0.9,0.6,2,2.4,1.7C65,68.6,75,55.5,75,40
	C75,20.7,59.3,5,40,5z"/>
</svg>
