<?xml version="1.0" encoding="utf-8"?>
<!-- Generator: Adobe Illustrator 27.0.1, SVG Export Plug-In . SVG Version: 6.00 Build 0)  -->
<svg version="1.1" id="Layer_1" xmlns="http://www.w3.org/2000/svg" xmlns:xlink="http://www.w3.org/1999/xlink" x="0px" y="0px"
	 viewBox="0 0 80 80" style="enable-background:new 0 0 80 80;" xml:space="preserve">
<g>
	<circle cx="40" cy="40" r="7.7"/>
	<path d="M57.8,26.5c-0.4-1-0.9-1.8-1.7-2.6c-0.8-0.8-1.6-1.3-2.6-1.7c-0.8-0.3-2-0.7-4.3-0.8c-2.4-0.1-3.1-0.1-9.2-0.1
		s-6.9,0-9.2,0.1c-2.2,0.1-3.5,0.5-4.3,0.8c-1,0.4-1.8,0.9-2.6,1.7c-0.8,0.8-1.3,1.6-1.7,2.6c-0.3,0.8-0.7,2-0.8,4.3
		c-0.1,2.4-0.1,3.1-0.1,9.2s0,6.8,0.1,9.2c0.1,2.2,0.5,3.5,0.8,4.3c0.4,1,0.9,1.8,1.7,2.6c0.8,0.8,1.6,1.3,2.6,1.7
		c0.8,0.3,2,0.7,4.3,0.8c2.4,0.1,3.1,0.1,9.2,0.1s6.8,0,9.2-0.1c2.2-0.1,3.5-0.5,4.3-0.8c1-0.4,1.8-0.9,2.6-1.7
		c0.8-0.8,1.3-1.6,1.7-2.6c0.3-0.8,0.7-2,0.8-4.3c0.1-2.4,0.1-3.1,0.1-9.2s0-6.8-0.1-9.2C58.5,28.5,58.1,27.2,57.8,26.5z M40,51.8
		c-6.5,0-11.8-5.2-11.8-11.8S33.5,28.2,40,28.2S51.8,33.5,51.8,40S46.5,51.8,40,51.8z M52.2,30.5c-1.5,0-2.7-1.2-2.7-2.7
		c0-1.5,1.2-2.7,2.7-2.7c1.5,0,2.7,1.2,2.7,2.7C55,29.3,53.8,30.5,52.2,30.5z"/>
	<path d="M40,5C20.7,5,5,20.7,5,40s15.7,35,35,35s35-15.7,35-35S59.3,5,40,5z M62.7,49.5c-0.1,2.4-0.5,4.1-1,5.6
		c-0.6,1.5-1.4,2.8-2.6,4.1c-1.2,1.2-2.6,2-4.1,2.6c-1.4,0.5-3.1,0.9-5.6,1c-2.4,0.1-3.2,0.1-9.4,0.1s-7,0-9.5-0.2
		c-2.4-0.1-4.1-0.5-5.6-1c-1.5-0.6-2.8-1.4-4.1-2.6c-1.2-1.2-2-2.6-2.6-4.1c-0.5-1.4-0.9-3.1-1-5.6c-0.1-2.4-0.1-3.2-0.1-9.4
		s0-7,0.2-9.5c0.1-2.4,0.5-4.1,1-5.6c0.6-1.5,1.4-2.8,2.6-4.1c1.2-1.2,2.6-2,4.1-2.6c1.4-0.5,3.1-0.9,5.6-1c2.4-0.1,3.2-0.1,9.4-0.1
		s7,0,9.5,0.2c2.4,0.1,4.1,0.5,5.6,1c1.5,0.6,2.8,1.4,4.1,2.6c1.2,1.2,2,2.6,2.6,4.1c0.5,1.4,0.9,3.1,1,5.6c0.1,2.4,0.1,3.2,0.1,9.4
		S62.9,47,62.7,49.5z"/>
</g>
</svg>
