<?xml version="1.0" encoding="utf-8"?>
<!-- Generator: Adobe Illustrator 27.0.1, SVG Export Plug-In . SVG Version: 6.00 Build 0)  -->
<svg version="1.1" id="Layer_1" xmlns="http://www.w3.org/2000/svg" xmlns:xlink="http://www.w3.org/1999/xlink" x="0px" y="0px"
	 viewBox="0 0 80 80" style="enable-background:new 0 0 80 80;" xml:space="preserve">
<g>
	<path d="M59.8,34.2c3.2-3.4,2.1-7.5-0.2-9.9s-6.4-3.4-9.9-0.2c-0.2,0.2-0.3,0.3-0.5,0.5c-0.1,0.1-0.3,0.3-0.4,0.4l-1.7,1.8l0.1-2.5
		c0-0.1,0-0.3,0-0.5c0-0.3,0-0.5,0-0.7c-0.1-4.7-3.8-6.8-7.1-6.8s-7,2.1-7.1,6.8c0,0.3,0,0.5,0,0.7c0,0.2,0,0.3,0,0.5l0.1,2.5
		l-1.7-1.8c-0.1-0.1-0.3-0.3-0.4-0.4c-0.2-0.2-0.3-0.4-0.5-0.5c-1.5-1.4-3.2-2-4.8-2c-1.9,0-3.8,0.9-5.1,2.2
		c-2.3,2.3-3.4,6.4-0.2,9.9c0.1,0.2,0.3,0.3,0.5,0.5C29,42.9,40,43,40.1,43c0.1,0,11.1-0.1,19.2-8.2C59.5,34.5,59.7,34.4,59.8,34.2z
		 M35,35.4c-1.1,0-1.9-0.9-1.9-1.9c0-0.7,0.4-1.3,0.9-1.6c-0.2-0.1-0.4-0.1-0.6-0.1c-2.3,0-4.2,1.5-4.2,3.5H28
		c0-2.7,2.5-4.8,5.5-4.8c3,0,5.5,2.1,5.5,4.8h-1.3c0-0.7-0.3-1.5-0.9-2.1c0,0.1,0,0.2,0.1,0.3C36.9,34.5,36,35.4,35,35.4z
		 M40.1,40.1c-1.5,0-3-0.8-3.6-2l1.1-0.6c0.5,0.8,1.4,1.3,2.5,1.3s2-0.5,2.5-1.3l1.1,0.6C43.1,39.3,41.6,40.1,40.1,40.1z M50.9,35.3
		c0-0.9-0.4-1.6-1-2.2c0.1,0.1,0.1,0.3,0.1,0.4c0,1.1-0.9,1.9-1.9,1.9c-1.1,0-1.9-0.9-1.9-1.9c0-0.7,0.5-1.3,1.1-1.7
		c-0.2-0.1-0.4-0.1-0.6-0.1c-2.3,0-4.2,1.6-4.2,3.6h-1.3c0-2.7,2.5-4.8,5.5-4.8c3,0,5.5,2.1,5.5,4.8H50.9z"/>
	<path d="M40,5C20.7,5,5,20.7,5,40s15.7,35,35,35s35-15.7,35-35S59.3,5,40,5z M56.5,61.4c-1.3,0-2.7-0.2-4-0.5
		c-4-0.9-7.5-3.1-10.1-6.3c-0.6-0.8-1.1-1.6-1.5-2.5v9.2h-1.8v-9.2c-0.4,0.9-0.9,1.7-1.5,2.5c-2.5,3.2-6.1,5.4-10.1,6.3
		c-1.3,0.3-2.6,0.5-4,0.5c-2.6,0-5.2-0.5-7.6-1.7l0.8-1.7c3.2,1.5,6.9,1.9,10.4,1.2c3-0.6,5.6-2.1,7.7-4.2c-1.3,0.5-2.7,0.8-4.2,0.8
		c-2.5,0-5-0.7-7-2.2l1.1-1.5c2.7,2,6.6,2.5,9.7,1.1c3-1.4,4.7-4.3,4.6-8.2v-0.4c-3-0.2-12.2-1.4-19.5-8.7c-0.2-0.1-0.3-0.3-0.5-0.5
		c-1.8-1.9-2.7-4.2-2.5-6.6c0.2-2.1,1.1-4.2,2.7-5.8c1.6-1.6,3.7-2.6,5.8-2.7c2.2-0.2,4.4,0.5,6.2,2.1c0.2-2.4,1.2-4.4,2.9-5.8
		c1.6-1.4,3.8-2.1,6-2.1c2.3,0,4.4,0.7,6,2.1c1.7,1.5,2.7,3.5,2.9,5.8c1.8-1.5,4-2.3,6.2-2.1c2.1,0.2,4.2,1.1,5.8,2.7
		c1.6,1.6,2.6,3.7,2.7,5.8c0.2,2.3-0.7,4.6-2.5,6.6c-0.2,0.2-0.3,0.3-0.5,0.5c-7.4,7.4-16.8,8.5-19.6,8.7v0.4
		c0.1,3.9,1.8,6.8,4.8,8.2c3,1.3,6.9,0.9,9.7-1.1l1,1.5c-2.1,1.4-4.5,2.2-7,2.2c-1.4,0.1-2.9-0.3-4.2-0.8c2.1,2.1,4.8,3.5,7.7,4.2
		c3.6,0.8,7.2,0.4,10.5-1.1l0.7,1.6C61.7,60.8,59.1,61.4,56.5,61.4z"/>
</g>
</svg>
