<?xml version="1.0" encoding="utf-8"?>
<!-- Generator: Adobe Illustrator 27.0.1, SVG Export Plug-In . SVG Version: 6.00 Build 0)  -->
<svg version="1.1" id="Layer_1" xmlns="http://www.w3.org/2000/svg" xmlns:xlink="http://www.w3.org/1999/xlink" x="0px" y="0px"
	 viewBox="0 0 80 80" style="enable-background:new 0 0 80 80;" xml:space="preserve">
<g>
	<path d="M40,5C20.7,5,5,20.7,5,40c0,19.3,15.7,35,35,35c19.3,0,35-15.7,35-35C75,20.7,59.3,5,40,5L40,5z M55.6,32c0,0.3,0,0.7,0,1
		c0,10.6-8.1,22.9-22.9,22.9c-4.6,0-8.8-1.3-12.3-3.6c0.6,0.1,1.3,0.1,1.9,0.1c3.8,0,7.2-1.3,10-3.4c-3.5-0.1-6.5-2.4-7.5-5.6
		c0.5,0.1,1,0.1,1.5,0.1c0.7,0,1.4-0.1,2.1-0.3c-3.7-0.7-6.5-4-6.5-7.9c0,0,0-0.1,0-0.1c1.1,0.6,2.3,1,3.6,1
		c-2.2-1.4-3.6-3.9-3.6-6.7c0-1.5,0.4-2.9,1.1-4c4,4.9,9.9,8.1,16.6,8.4c-0.1-0.6-0.2-1.2-0.2-1.8c0-4.4,3.6-8.1,8.1-8.1
		c2.3,0,4.4,1,5.9,2.5c1.8-0.4,3.6-1,5.1-2c-0.6,1.9-1.9,3.5-3.5,4.5c1.6-0.2,3.2-0.6,4.6-1.3C58.6,29.4,57.2,30.9,55.6,32L55.6,32z
		 M55.6,32"/>
</g>
</svg>
