<?xml version="1.0" encoding="UTF-8"?><svg id="Layer_1" xmlns="http://www.w3.org/2000/svg" viewBox="0 0 1000 1000"><defs><style>.cls-1{fill:#020866;}.cls-2{fill:#ffff5a;}.cls-3{fill:#ff3b6a;}</style></defs><circle class="cls-3" cx="500" cy="500" r="500"/><g><g><path class="cls-2" d="M467.34,388.42c-1.14,.88-2.28,1.77-3.42,2.65,1.13-.89,2.27-1.77,3.42-2.65Z"/><path class="cls-2" d="M477.93,380.38c-.2,.15-.41,.3-.61,.45,.2-.15,.41-.3,.61-.45Z"/><path class="cls-2" d="M473.41,383.78c-.93,.7-1.86,1.4-2.78,2.11,.92-.7,1.85-1.41,2.78-2.11Z"/><path class="cls-2" d="M448.5,403.5c2.07-1.73,4.17-3.44,6.27-5.15-2.1,1.7-4.19,3.42-6.27,5.15Z"/><path class="cls-2" d="M461.06,393.32c-1.35,1.07-2.69,2.14-4.03,3.21,1.34-1.07,2.68-2.15,4.03-3.21Z"/><path class="cls-2" d="M549.18,332.71c-1.12,.67-2.25,1.33-3.37,2,1.12-.67,2.24-1.34,3.37-2Z"/><path class="cls-2" d="M557.86,327.59c-.4,.24-.81,.47-1.21,.71,.4-.24,.81-.47,1.21-.71Z"/><path class="cls-2" d="M543.02,336.4c-1.25,.76-2.51,1.51-3.76,2.28,1.25-.76,2.5-1.52,3.76-2.28Z"/><path class="cls-2" d="M536.56,340.34c-1.3,.8-2.59,1.6-3.88,2.4,1.29-.8,2.58-1.61,3.88-2.4Z"/><path class="cls-2" d="M530.14,344.33c-1.41,.89-2.82,1.79-4.23,2.69,1.4-.9,2.81-1.8,4.23-2.69Z"/><path class="cls-2" d="M517.5,352.5c2.08-1.39,4.17-2.76,6.28-4.12-2.1,1.36-4.2,2.73-6.28,4.12Z"/><path class="cls-2" d="M388.73,547.06c.04,.15,.07,.3,.12,.45-.05-.14-.08-.3-.12-.45Z"/><path class="cls-2" d="M388.55,546.03c.01,.17,.02,.34,.04,.5-.03-.16-.03-.33-.04-.5Z"/><path class="cls-2" d="M389.08,547.99c.07,.13,.12,.27,.2,.39-.08-.12-.13-.26-.2-.39Z"/><path class="cls-2" d="M388.5,545.38s0,.04,0,.06c0-.11,.02-.21,.03-.32,0,.09-.03,.17-.03,.26Z"/><path class="cls-2" d="M389.86,549.11c-.1-.1-.17-.22-.26-.32,.09,.11,.16,.22,.26,.32Z"/><path class="cls-2" d="M390.59,549.7c-.11-.07-.21-.17-.31-.25,.11,.08,.2,.18,.31,.25Z"/><path class="cls-2" d="M391.44,550.14c-.12-.05-.23-.12-.34-.17,.12,.06,.22,.13,.34,.17Z"/><path class="cls-2" d="M358.5,534.5c3.9-4.46,7.81-8.92,11.71-13.21-3.9,4.29-7.81,8.74-11.71,13.21Z"/><path class="cls-2" d="M392.42,550.41c-.12-.02-.22-.06-.33-.09,.11,.03,.21,.07,.33,.09Z"/><path class="cls-2" d="M358.5,572.5c0,3,2,5,5,5-2.76,0-5-2.24-5-5Z"/><g><path class="cls-1" d="M214.5,490.5c13,0,22-9,22-23,0-13-9-22-22-22-14,0-23,9-23,22,0,14,9,23,23,23Z"/><circle class="cls-1" cx="322.5" cy="149.5" r="15"/><circle class="cls-1" cx="516.5" cy="165.5" r="25"/><circle class="cls-1" cx="779.5" cy="247.5" r="43"/><path class="cls-1" d="M832.5,373.5h-193c-5.79,0-10,4.21-10,10v113.51l-42-12.51c-2-1-4-2-4-5v-108l49-49c27-14,53-26,79-36,12-5,17-13,13-22-4-10-12-12-24-7-9,3-18,7-27,11v-60c0-3-2-5-5-5H352.5c-2,0-5,1-7,3l-94,94c-2,2-3,5-3,7v70c0,3,2,4,4,5l82,24c2,1,4,2,4,5v97c-16,18-31,37-44,55l-43,43c-2,2-3,5-3,7v22c-17,30-29,59-36,85-24,2-41,20-41,45s18,44,43,45c15,30,48,47,89,47,79,0,189-51,286-134,10-8,11-17,5-25-7-7-16-7-26,2-93,77-194,125-265,125-29,0-49-8-58-25,10-8,16-20,16-35,0-16-7-29-18-37,3-13,8-27,14-41h312c2,0,5-1,7-3l53-53v213c0,5.79,4.21,10,10,10h29c5.79,0,10-4.21,10-10v-182h129c5.79,0,10-4.21,10-10v-26c0-5.79-4.21-10-10-10h-129v-197h154c5.79,0,10-4.21,10-10v-26c0-5.79-4.21-10-10-10ZM196.92,795.59s0,0,0,0c-.56-.35-1.11-.71-1.65-1.08-.08-.06-.17-.12-.25-.18-1.08-.77-2.1-1.6-3.06-2.49-.08-.07-.15-.14-.23-.21-.44-.42-.87-.85-1.29-1.29-.03-.03-.06-.06-.09-.1-.45-.48-.88-.98-1.29-1.48-.06-.07-.11-.14-.17-.21-.36-.45-.7-.9-1.04-1.37-.06-.09-.12-.17-.19-.26-.37-.53-.73-1.08-1.07-1.64-.03-.04-.05-.09-.08-.13-.31-.51-.6-1.03-.88-1.56-.06-.12-.13-.25-.19-.37-.59-1.16-1.12-2.36-1.58-3.62-.05-.15-.11-.29-.16-.44-.19-.54-.37-1.09-.54-1.65-.03-.1-.06-.2-.09-.29-.19-.65-.36-1.3-.51-1.97-.04-.15-.07-.31-.1-.46-.12-.55-.23-1.1-.33-1.67-.03-.16-.06-.32-.08-.49-.11-.69-.21-1.39-.29-2.09-.01-.12-.02-.25-.04-.37-.06-.6-.11-1.22-.15-1.83-.01-.2-.02-.4-.03-.59-.03-.74-.06-1.48-.06-2.24,0-.86,.03-1.7,.08-2.53,.01-.17,.02-.34,.03-.51,.06-.81,.13-1.6,.23-2.39,.02-.13,.04-.26,.06-.38,.1-.74,.22-1.47,.37-2.18,.02-.09,.03-.18,.05-.27,.16-.77,.34-1.52,.54-2.26,.04-.14,.07-.27,.11-.4,.21-.75,.44-1.49,.7-2.21,0,0,0-.02,.01-.03,.26-.73,.54-1.43,.85-2.13,.04-.09,.08-.19,.12-.28,.31-.69,.63-1.36,.98-2.02,.04-.08,.08-.16,.13-.23,.36-.67,.74-1.32,1.14-1.96,0,0,0,0,0,0,3.97-2.54,8.56-4.31,13.6-5.2-3,14-5,27-5,39,0,5.58,.52,10.9,1.42,16.09ZM358.5,223.5v-5c0-3,2-5,5-5h295c3,0,5,2,5,5v51c0,2-1,3-2,4-1,0-2,1-3,1l-5,1.48-76,22.52c-2,1-4,2-4,5v15c-3.34,1.93-6.68,3.87-10.02,5.81h.02c-15.64,9.08-31.16,18.3-46,28.19v-102h112c3,0,5-2,5-5s-2-5-5-5h-236c-3,0-5,2-5,5s2,5,5,5h112v110c-3.37,2.36-6.7,4.72-10.01,7.08,0,0,0,0,0,0-16.35,11.67-32.03,23.45-47,35.93v-100c0-3-2-4-4-5l-82-24c-2-1-4-2-4-5v-46Zm-10,184l87-86v17l-87,86v-17Zm0,30l87-86v7l-87,86v-7Zm-90-130l87-86v17l-87,86v-17Zm0,37v-7l87-86v7l-87,86Zm-31,425c0,42,28,66,76,66,71,0,171-46,264-121,11-8,17-13,20-9s-2,9-11,17c-95,77-198,125-273,125-54,0-88-29-88-78,0-75,63-186,162-289,83-86,204-165,317-211,11-5,18-7,20-2s-4,8-16,13c-111,46-230,124-313,210-97,100-158,208-158,279Zm10.56,10.1c-.02-.19-.05-.39-.07-.58-.06-.53-.1-1.07-.15-1.62-.03-.39-.07-.78-.09-1.17-.03-.45-.06-.9-.09-1.35-.03-.53-.05-1.07-.08-1.61-.01-.35-.03-.7-.04-1.04-.03-.91-.04-1.82-.04-2.73,0-1.63,.04-3.26,.09-4.89,.01-.31,.02-.62,.03-.93,.06-1.61,.15-3.22,.26-4.84,2.35,4.92,3.62,10.48,3.62,16.66,0,4.54-.69,8.73-1.98,12.51h0c-.64-2.6-1.12-5.45-1.46-8.42Zm391.44-202.1H363.5c-2.76,0-5-2.24-5-5v-38c3.91-4.46,7.81-8.92,11.72-13.21h0c3.09-3.4,6.19-6.7,9.28-9.79l59-17.25,6-1.75c2-1,4-2,4-5v-42c18-16,37-31,57-45v140h-111.96c-2.72,0-5,2.16-5.04,4.88-.05,3.06,1.96,5.12,5,5.12l236,.02v26.98Zm0-36.98l-112-.02v-149c18-12,37-25,56-36v132c0,3,2,4,4,5l52,15.51v32.51Zm203-131.02h-154c-5.79,0-10,4.21-10,10v207h139v26h-139v192h-29V383.5h193v26Z"/><circle class="cls-1" cx="746.5" cy="511.5" r="15"/><path class="cls-1" d="M383.54,550.5c-.51,0-1,.1-1.46,.24,.47-.14,.95-.24,1.46-.24Z"/><circle class="cls-1" cx="339.5" cy="761.5" r="15"/><circle class="cls-1" cx="526.5" cy="815.5" r="25"/></g></g><path class="cls-2" d="M348.5,407.5l87-86v17l-87,86v-17Zm0,30l87-86v7l-87,86v-7Zm-90-130l87-86v17l-87,86v-17Zm0,37v-7l87-86v7l-87,86Zm-31,425c0,42,28,66,76,66,71,0,171-46,264-121,11-8,17-13,20-9s-2,9-11,17c-95,77-198,125-273,125-54,0-88-29-88-78,0-75,63-186,162-289,83-86,204-165,317-211,11-5,18-7,20-2s-4,8-16,13c-111,46-230,124-313,210-97,100-158,208-158,279ZM518.47,180.39c.26-.03,.52-.06,.78-.1,.58-.09,1.15-.2,1.7-.34,0,0,0,0,0,0,.36-1.38,.55-2.87,.55-4.45,0-9-6-15-15-15-1.58,0-3.07,.2-4.45,.55,0,0,0,0,0,0-.14,.55-.25,1.12-.34,1.7-.04,.26-.07,.51-.1,.78-.02,.18-.04,.36-.05,.55-.03,.47-.06,.94-.06,1.42,0,9,6,15,15,15,.49,0,.96-.03,1.42-.06,.18-.01,.36-.03,.55-.05Zm10,650c.26-.03,.52-.06,.78-.1,.58-.09,1.15-.2,1.7-.34,0,0,0,0,0,0,.36-1.38,.55-2.87,.55-4.45,0-9-6-15-15-15-1.58,0-3.07,.2-4.45,.55,0,0,0,0,0,0-.14,.55-.25,1.12-.34,1.7-.04,.26-.07,.51-.1,.78-.02,.18-.04,.36-.05,.55-.03,.47-.06,.94-.06,1.42,0,9,6,15,15,15,.49,0,.96-.03,1.42-.06,.18-.01,.36-.03,.55-.05Zm-290.89-57.12c.02,.54,.05,1.07,.08,1.61,.03,.45,.06,.9,.09,1.35,.03,.39,.06,.78,.09,1.17,.05,.54,.09,1.08,.15,1.62,.02,.19,.04,.39,.07,.58,.34,2.97,.82,5.82,1.46,8.42h0c1.29-3.79,1.98-7.98,1.98-12.51,0-6.19-1.27-11.74-3.62-16.66-.11,1.62-.19,3.23-.26,4.84-.01,.31-.02,.62-.03,.93-.05,1.63-.09,3.26-.09,4.89,0,.91,.02,1.82,.04,2.73,.01,.35,.03,.7,.04,1.04Zm-55.99-4.94c.04,.62,.09,1.23,.15,1.83,.01,.12,.02,.25,.04,.37,.08,.71,.17,1.41,.29,2.09,.03,.16,.06,.32,.08,.49,.1,.56,.21,1.12,.33,1.67,.03,.15,.06,.31,.1,.46,.15,.67,.32,1.32,.51,1.97,.03,.1,.06,.2,.09,.29,.17,.56,.35,1.11,.54,1.65,.05,.15,.1,.3,.16,.44,.46,1.25,.99,2.46,1.58,3.62,.06,.12,.13,.25,.19,.37,.28,.53,.57,1.05,.88,1.56,.03,.04,.05,.09,.08,.13,.34,.56,.7,1.11,1.07,1.64,.06,.09,.12,.17,.19,.26,.33,.47,.68,.92,1.04,1.37,.06,.07,.11,.14,.17,.21,.42,.51,.85,1,1.29,1.48,.03,.03,.06,.06,.09,.1,.42,.44,.85,.87,1.29,1.29,.08,.07,.15,.14,.23,.21,.96,.89,1.98,1.72,3.06,2.49,.08,.06,.17,.12,.25,.18,.54,.38,1.08,.74,1.65,1.08,0,0,0,0,0,0-.9-5.19-1.42-10.51-1.42-16.09,0-12,2-25,5-39-5.03,.89-9.62,2.66-13.6,5.2,0,0,0,0,0,0-.4,.63-.78,1.29-1.14,1.96-.04,.08-.09,.15-.13,.23-.35,.66-.68,1.33-.98,2.02-.04,.09-.08,.19-.12,.28-.3,.69-.59,1.4-.85,2.13,0,0,0,.02-.01,.03-.26,.72-.49,1.46-.7,2.21-.04,.13-.08,.27-.11,.4-.2,.74-.39,1.49-.54,2.26-.02,.09-.03,.18-.05,.27-.14,.72-.26,1.45-.37,2.18-.02,.13-.04,.26-.06,.38-.1,.78-.18,1.58-.23,2.39-.01,.17-.02,.34-.03,.51-.05,.83-.08,1.68-.08,2.53,0,.76,.02,1.5,.06,2.24,0,.2,.02,.4,.03,.59Zm34.68-287.96s0,0,0,0c.15-.91,.23-1.87,.23-2.88,0-7-5-12-12-12-1.01,0-1.97,.08-2.88,.23h0c-.03,.26-.06,.51-.08,.77-.02,.33-.04,.66-.04,.99,0,8,5,13,13,13,.34,0,.67-.02,.99-.04,.26-.02,.52-.05,.77-.08Zm423.23,364.12h29v-192h139v-26h-139v-207c0-5.79,4.21-10,10-10h154v-26h-193v461Zm-255.96-294h9.96c-3.04,0-5.05-2.05-5-5.12,.05-2.72,2.32-4.88,5.04-4.88h101.96v-130c-16.34,11.44-32,23.55-47,36.32v40.68c0,3-2,4-4,5l-6,1.75v3.25c0,3-2,4-4,5l-64.28,18.79c-3.91,4.29-7.81,8.75-11.72,13.21v38c0,2.76,2.24,5,5,5h261v-11.98c0-2.76-2.24-5-5-5l-236-.02c-3.04,0-5.05-2.05-5-5.12,.05-2.72,2.32-4.88,5.04-4.88Zm179.96-53v-132c-15.52,8.98-31.03,19.3-46,29.32v145.68l107,.02v-17.29c0-2.21-1.45-4.16-3.57-4.79l-53.43-15.93c-2-1-4-2-4-5Zm85-274H358.5v46c0,3,2,4,4,5l82,24c2,1,4,2,4,5v100c14.97-12.48,30.65-24.26,47-35.93v-107.07h-112c-3,0-5-2-5-5s2-5,5-5h10c-3,0-5-2-5-5s2-5,5-5h236c3,0,5,2,5,5s-2,5-5,5h-10c3,0,5,2,5,5s-2,5-5,5h-102v92c14.84-9.89,30.36-19.1,46-28.2v-10.8c0-3,2-4,4-5l6-1.78v-3.22c0-3,2-4,4-5l76-22.52v-47.48c0-3-2-5-5-5Zm133.95,56.89c.65-.04,1.3-.1,1.94-.17,.11-.01,.23-.02,.34-.04,.76-.09,1.51-.21,2.24-.34,.11-.02,.22-.04,.33-.06,.66-.13,1.31-.27,1.96-.43,.09-.02,.19-.05,.28-.07,1.47-.38,2.89-.85,4.24-1.4,.04-.02,.09-.04,.13-.06,1.38-.57,2.7-1.22,3.94-1.96h0c3-5.06,4.64-11.27,4.64-18.36,0-20-13-33-33-33-7.09,0-13.29,1.64-18.36,4.64h0c-.74,1.25-1.39,2.56-1.96,3.94-.02,.04-.04,.09-.06,.14-.55,1.35-1.02,2.77-1.4,4.24-.02,.09-.05,.19-.07,.28-.16,.64-.3,1.29-.43,1.96-.02,.11-.04,.22-.06,.33-.13,.73-.25,1.48-.34,2.24-.01,.11-.02,.23-.04,.34-.07,.64-.13,1.29-.17,1.94-.01,.2-.03,.4-.04,.61-.04,.77-.07,1.55-.07,2.34,0,20,13,33,33,33,.79,0,1.57-.03,2.34-.07,.2-.01,.41-.02,.61-.04Z"/></g></svg>