<?xml version="1.0" encoding="utf-8"?>
<!-- Generator: Adobe Illustrator 26.3.1, SVG Export Plug-In . SVG Version: 6.00 Build 0)  -->
<svg version="1.1" id="Layer_1" xmlns="http://www.w3.org/2000/svg" xmlns:xlink="http://www.w3.org/1999/xlink" x="0px" y="0px"
	 viewBox="0 0 671 723" style="enable-background:new 0 0 671 723;" xml:space="preserve">
<style type="text/css">
	.st0{fill:#FFFF5A;}
	.st1{fill:#020866;}
</style>
<g>
	<g>
		<path class="st0" d="M295.8,253.9c-1.1,0.9-2.3,1.8-3.4,2.6C293.5,255.7,294.7,254.8,295.8,253.9z"/>
		<path class="st0" d="M306.4,245.9c-0.2,0.1-0.4,0.3-0.6,0.5C306,246.2,306.2,246,306.4,245.9z"/>
		<path class="st0" d="M301.9,249.3c-0.9,0.7-1.9,1.4-2.8,2.1C300.1,250.7,301,250,301.9,249.3z"/>
		<path class="st0" d="M277,269c2.1-1.7,4.2-3.4,6.3-5.1C281.2,265.6,279.1,267.3,277,269z"/>
		<path class="st0" d="M289.6,258.8c-1.4,1.1-2.7,2.1-4,3.2C286.9,261,288.2,259.9,289.6,258.8z"/>
		<path class="st0" d="M377.7,198.2c-1.1,0.7-2.2,1.3-3.4,2C375.4,199.5,376.5,198.9,377.7,198.2z"/>
		<path class="st0" d="M386.4,193.1c-0.4,0.2-0.8,0.5-1.2,0.7C385.5,193.6,386,193.3,386.4,193.1z"/>
		<path class="st0" d="M371.5,201.9c-1.2,0.8-2.5,1.5-3.8,2.3C369,203.4,370.3,202.7,371.5,201.9z"/>
		<path class="st0" d="M365.1,205.8c-1.3,0.8-2.6,1.6-3.9,2.4C362.5,207.4,363.8,206.6,365.1,205.8z"/>
		<path class="st0" d="M358.6,209.8c-1.4,0.9-2.8,1.8-4.2,2.7C355.8,211.6,357.2,210.7,358.6,209.8z"/>
		<path class="st0" d="M346,218c2.1-1.4,4.2-2.8,6.3-4.1C350.2,215.2,348.1,216.6,346,218z"/>
		<path class="st0" d="M217.2,412.6c0,0.2,0.1,0.3,0.1,0.5C217.3,412.9,217.3,412.7,217.2,412.6z"/>
		<path class="st0" d="M217,411.5c0,0.2,0,0.3,0,0.5C217.1,411.9,217.1,411.7,217,411.5z"/>
		<path class="st0" d="M217.6,413.5c0.1,0.1,0.1,0.3,0.2,0.4C217.7,413.8,217.6,413.6,217.6,413.5z"/>
		<path class="st0" d="M217,410.9C217,410.9,217,410.9,217,410.9c0,0,0-0.2,0-0.3C217,410.7,217,410.8,217,410.9z"/>
		<path class="st0" d="M218.4,414.6c-0.1-0.1-0.2-0.2-0.3-0.3C218.2,414.4,218.3,414.5,218.4,414.6z"/>
		<path class="st0" d="M219.1,415.2c-0.1-0.1-0.2-0.2-0.3-0.2C218.9,415,219,415.1,219.1,415.2z"/>
		<path class="st0" d="M219.9,415.6c-0.1,0-0.2-0.1-0.3-0.2C219.7,415.5,219.8,415.6,219.9,415.6z"/>
		<path class="st0" d="M187,400c3.9-4.5,7.8-8.9,11.7-13.2C194.8,391.1,190.9,395.5,187,400z"/>
		<path class="st0" d="M220.9,415.9c-0.1,0-0.2-0.1-0.3-0.1C220.7,415.8,220.8,415.9,220.9,415.9z"/>
		<path class="st0" d="M187,438c0,3,2,5,5,5C189.2,443,187,440.8,187,438z"/>
		<g>
			<path class="st1" d="M43,356c13,0,22-9,22-23c0-13-9-22-22-22c-14,0-23,9-23,22C20,347,29,356,43,356z"/>
			<circle class="st1" cx="151" cy="15" r="15"/>
			<circle class="st1" cx="345" cy="31" r="25"/>
			<circle class="st1" cx="608" cy="113" r="43"/>
			<path class="st1" d="M661,239H468c-5.8,0-10,4.2-10,10v113.5L416,350c-2-1-4-2-4-5V237l49-49c27-14,53-26,79-36c12-5,17-13,13-22
				c-4-10-12-12-24-7c-9,3-18,7-27,11V74c0-3-2-5-5-5H181c-2,0-5,1-7,3l-94,94c-2,2-3,5-3,7v70c0,3,2,4,4,5l82,24c2,1,4,2,4,5v97
				c-16,18-31,37-44,55l-43,43c-2,2-3,5-3,7v22c-17,30-29,59-36,85c-24,2-41,20-41,45s18,44,43,45c15,30,48,47,89,47
				c79,0,189-51,286-134c10-8,11-17,5-25c-7-7-16-7-26,2c-93,77-194,125-265,125c-29,0-49-8-58-25c10-8,16-20,16-35c0-16-7-29-18-37
				c3-13,8-27,14-41h312c2,0,5-1,7-3l53-53v213c0,5.8,4.2,10,10,10h29c5.8,0,10-4.2,10-10V528h129c5.8,0,10-4.2,10-10v-26
				c0-5.8-4.2-10-10-10H507V285h154c5.8,0,10-4.2,10-10v-26C671,243.2,666.8,239,661,239z M25.4,661.1L25.4,661.1
				c-0.6-0.3-1.1-0.7-1.6-1.1c-0.1-0.1-0.2-0.1-0.2-0.2c-1.1-0.8-2.1-1.6-3.1-2.5c-0.1-0.1-0.1-0.1-0.2-0.2
				c-0.4-0.4-0.9-0.8-1.3-1.3c0,0-0.1-0.1-0.1-0.1c-0.4-0.5-0.9-1-1.3-1.5c-0.1-0.1-0.1-0.1-0.2-0.2c-0.4-0.5-0.7-0.9-1-1.4
				c-0.1-0.1-0.1-0.2-0.2-0.3c-0.4-0.5-0.7-1.1-1.1-1.6c0,0-0.1-0.1-0.1-0.1c-0.3-0.5-0.6-1-0.9-1.6c-0.1-0.1-0.1-0.2-0.2-0.4
				c-0.6-1.2-1.1-2.4-1.6-3.6c-0.1-0.2-0.1-0.3-0.2-0.4c-0.2-0.5-0.4-1.1-0.5-1.7c0-0.1-0.1-0.2-0.1-0.3c-0.2-0.7-0.4-1.3-0.5-2
				c0-0.2-0.1-0.3-0.1-0.5c-0.1-0.5-0.2-1.1-0.3-1.7c0-0.2-0.1-0.3-0.1-0.5c-0.1-0.7-0.2-1.4-0.3-2.1c0-0.1,0-0.2,0-0.4
				c-0.1-0.6-0.1-1.2-0.1-1.8c0-0.2,0-0.4,0-0.6c0-0.7-0.1-1.5-0.1-2.2c0-0.9,0-1.7,0.1-2.5c0-0.2,0-0.3,0-0.5
				c0.1-0.8,0.1-1.6,0.2-2.4c0-0.1,0-0.3,0.1-0.4c0.1-0.7,0.2-1.5,0.4-2.2c0-0.1,0-0.2,0.1-0.3c0.2-0.8,0.3-1.5,0.5-2.3
				c0-0.1,0.1-0.3,0.1-0.4c0.2-0.8,0.4-1.5,0.7-2.2c0,0,0,0,0,0c0.3-0.7,0.5-1.4,0.9-2.1c0-0.1,0.1-0.2,0.1-0.3c0.3-0.7,0.6-1.4,1-2
				c0-0.1,0.1-0.2,0.1-0.2c0.4-0.7,0.7-1.3,1.1-2l0,0c4-2.5,8.6-4.3,13.6-5.2c-3,14-5,27-5,39C24,650.6,24.5,655.9,25.4,661.1
				L25.4,661.1z M187,89v-5c0-3,2-5,5-5h295c3,0,5,2,5,5v51c0,2-1,3-2,4c-1,0-2,1-3,1l-5,1.5L406,164c-2,1-4,2-4,5v15
				c-3.3,1.9-6.7,3.9-10,5.8h0c-15.6,9.1-31.2,18.3-46,28.2V116h112c3,0,5-2,5-5s-2-5-5-5H222c-3,0-5,2-5,5s2,5,5,5h112v110
				c-3.4,2.4-6.7,4.7-10,7.1l0,0c-16.4,11.7-32,23.5-47,35.9V169c0-3-2-4-4-5l-82-24c-2-1-4-2-4-5L187,89L187,89z M177,273l87-86v17
				l-87,86V273z M177,303l87-86v7l-87,86V303z M87,173l87-86v17l-87,86V173z M87,210v-7l87-86v7L87,210z M56,635c0,42,28,66,76,66
				c71,0,171-46,264-121c11-8,17-13,20-9s-2,9-11,17c-95,77-198,125-273,125c-54,0-88-29-88-78c0-75,63-186,162-289
				c83-86,204-165,317-211c11-5,18-7,20-2s-4,8-16,13c-111,46-230,124-313,210C117,456,56,564,56,635z M66.6,645.1
				c0-0.2-0.1-0.4-0.1-0.6c-0.1-0.5-0.1-1.1-0.1-1.6c0-0.4-0.1-0.8-0.1-1.2c0-0.5-0.1-0.9-0.1-1.3c0-0.5-0.1-1.1-0.1-1.6
				c0-0.3,0-0.7,0-1c0-0.9,0-1.8,0-2.7c0-1.6,0-3.3,0.1-4.9c0-0.3,0-0.6,0-0.9c0.1-1.6,0.1-3.2,0.3-4.8c2.4,4.9,3.6,10.5,3.6,16.7
				c0,4.5-0.7,8.7-2,12.5l0,0C67.4,650.9,66.9,648.1,66.6,645.1L66.6,645.1z M458,443H192c-2.8,0-5-2.2-5-5v-38
				c3.9-4.5,7.8-8.9,11.7-13.2l0,0c3.1-3.4,6.2-6.7,9.3-9.8l59-17.2l6-1.8c2-1,4-2,4-5v-42c18-16,37-31,57-45v140H222
				c-2.7,0-5,2.2-5,4.9c0,3.1,2,5.1,5,5.1l236,0V443z M458,406l-112,0V257c18-12,37-25,56-36v132c0,3,2,4,4,5l52,15.5V406z M661,275
				H507c-5.8,0-10,4.2-10,10v207h139v26H497v192h-29V249h193V275z"/>
			<circle class="st1" cx="575" cy="377" r="15"/>
			<path class="st1" d="M212,416c-0.5,0-1,0.1-1.5,0.2C211.1,416.1,211.5,416,212,416z"/>
			<circle class="st1" cx="168" cy="627" r="15"/>
			<circle class="st1" cx="355" cy="681" r="25"/>
		</g>
	</g>
	<path class="st0" d="M177,273l87-86v17l-87,86V273z M177,303l87-86v7l-87,86V303z M87,173l87-86v17l-87,86V173z M87,210v-7l87-86v7
		L87,210z M56,635c0,42,28,66,76,66c71,0,171-46,264-121c11-8,17-13,20-9s-2,9-11,17c-95,77-198,125-273,125c-54,0-88-29-88-78
		c0-75,63-186,162-289c83-86,204-165,317-211c11-5,18-7,20-2s-4,8-16,13c-111,46-230,124-313,210C117,456,56,564,56,635z M347,45.9
		c0.3,0,0.5-0.1,0.8-0.1c0.6-0.1,1.2-0.2,1.7-0.3l0,0c0.4-1.4,0.5-2.9,0.5-4.4c0-9-6-15-15-15c-1.6,0-3.1,0.2-4.5,0.6l0,0
		c-0.1,0.6-0.2,1.1-0.3,1.7c0,0.3-0.1,0.5-0.1,0.8c0,0.2,0,0.4,0,0.6c0,0.5-0.1,0.9-0.1,1.4c0,9,6,15,15,15c0.5,0,1,0,1.4-0.1
		C346.6,45.9,346.8,45.9,347,45.9z M357,695.9c0.3,0,0.5-0.1,0.8-0.1c0.6-0.1,1.2-0.2,1.7-0.3l0,0c0.4-1.4,0.5-2.9,0.5-4.5
		c0-9-6-15-15-15c-1.6,0-3.1,0.2-4.5,0.5l0,0c-0.1,0.5-0.2,1.1-0.3,1.7c0,0.3-0.1,0.5-0.1,0.8c0,0.2,0,0.4,0,0.5
		c0,0.5-0.1,0.9-0.1,1.4c0,9,6,15,15,15c0.5,0,1,0,1.4-0.1C356.6,695.9,356.8,695.9,357,695.9z M66.1,638.8c0,0.5,0.1,1.1,0.1,1.6
		c0,0.5,0.1,0.9,0.1,1.3c0,0.4,0.1,0.8,0.1,1.2c0.1,0.5,0.1,1.1,0.1,1.6c0,0.2,0,0.4,0.1,0.6c0.3,3,0.8,5.8,1.5,8.4l0,0
		c1.3-3.8,2-8,2-12.5c0-6.2-1.3-11.7-3.6-16.7c-0.1,1.6-0.2,3.2-0.3,4.8c0,0.3,0,0.6,0,0.9c-0.1,1.6-0.1,3.3-0.1,4.9
		c0,0.9,0,1.8,0,2.7C66,638.1,66.1,638.4,66.1,638.8L66.1,638.8z M10.1,633.8c0,0.6,0.1,1.2,0.1,1.8c0,0.1,0,0.2,0,0.4
		c0.1,0.7,0.2,1.4,0.3,2.1c0,0.2,0.1,0.3,0.1,0.5c0.1,0.6,0.2,1.1,0.3,1.7c0,0.2,0.1,0.3,0.1,0.5c0.1,0.7,0.3,1.3,0.5,2
		c0,0.1,0.1,0.2,0.1,0.3c0.2,0.6,0.4,1.1,0.5,1.7c0.1,0.2,0.1,0.3,0.2,0.4c0.5,1.2,1,2.5,1.6,3.6c0.1,0.1,0.1,0.2,0.2,0.4
		c0.3,0.5,0.6,1,0.9,1.6c0,0,0.1,0.1,0.1,0.1c0.3,0.6,0.7,1.1,1.1,1.6c0.1,0.1,0.1,0.2,0.2,0.3c0.3,0.5,0.7,0.9,1,1.4
		c0.1,0.1,0.1,0.1,0.2,0.2c0.4,0.5,0.9,1,1.3,1.5c0,0,0.1,0.1,0.1,0.1c0.4,0.4,0.9,0.9,1.3,1.3c0.1,0.1,0.1,0.1,0.2,0.2
		c1,0.9,2,1.7,3.1,2.5c0.1,0.1,0.2,0.1,0.2,0.2c0.5,0.4,1.1,0.7,1.6,1.1l0,0c-0.9-5.2-1.4-10.5-1.4-16.1c0-12,2-25,5-39
		c-5,0.9-9.6,2.7-13.6,5.2l0,0c-0.4,0.6-0.8,1.3-1.1,2c0,0.1-0.1,0.2-0.1,0.2c-0.4,0.7-0.7,1.3-1,2c0,0.1-0.1,0.2-0.1,0.3
		c-0.3,0.7-0.6,1.4-0.9,2.1c0,0,0,0,0,0c-0.3,0.7-0.5,1.5-0.7,2.2c0,0.1-0.1,0.3-0.1,0.4c-0.2,0.7-0.4,1.5-0.5,2.3
		c0,0.1,0,0.2-0.1,0.3c-0.1,0.7-0.3,1.5-0.4,2.2c0,0.1,0,0.3-0.1,0.4c-0.1,0.8-0.2,1.6-0.2,2.4c0,0.2,0,0.3,0,0.5
		c-0.1,0.8-0.1,1.7-0.1,2.5c0,0.8,0,1.5,0.1,2.2C10.1,633.4,10.1,633.6,10.1,633.8L10.1,633.8z M44.8,345.9L44.8,345.9
		C44.9,345,45,344,45,343c0-7-5-12-12-12c-1,0-2,0.1-2.9,0.2l0,0c0,0.3-0.1,0.5-0.1,0.8c0,0.3,0,0.7,0,1c0,8,5,13,13,13
		c0.3,0,0.7,0,1,0C44.2,345.9,44.5,345.9,44.8,345.9L44.8,345.9z M468,710h29V518h139v-26H497V285c0-5.8,4.2-10,10-10h154v-26H468
		V710z M212,416h10c-3,0-5-2-5-5.1c0-2.7,2.3-4.9,5-4.9h102V276c-16.3,11.4-32,23.5-47,36.3V353c0,3-2,4-4,5l-6,1.8v3.2c0,3-2,4-4,5
		l-64.3,18.8c-3.9,4.3-7.8,8.8-11.7,13.2v38c0,2.8,2.2,5,5,5h261v-12c0-2.8-2.2-5-5-5l-236,0c-3,0-5-2-5-5.1
		C207,418.2,209.3,416,212,416L212,416z M392,363V231c-15.5,9-31,19.3-46,29.3V406l107,0v-17.3c0-2.2-1.5-4.2-3.6-4.8L396,368
		C394,367,392,366,392,363L392,363z M477,89H187v46c0,3,2,4,4,5l82,24c2,1,4,2,4,5v100c15-12.5,30.6-24.3,47-35.9V126H212
		c-3,0-5-2-5-5s2-5,5-5h10c-3,0-5-2-5-5s2-5,5-5h236c3,0,5,2,5,5s-2,5-5,5h-10c3,0,5,2,5,5s-2,5-5,5H346v92
		c14.8-9.9,30.4-19.1,46-28.2V179c0-3,2-4,4-5l6-1.8V169c0-3,2-4,4-5l76-22.5V94C482,91,480,89,477,89L477,89z M611,145.9
		c0.7,0,1.3-0.1,1.9-0.2c0.1,0,0.2,0,0.3,0c0.8-0.1,1.5-0.2,2.2-0.3c0.1,0,0.2,0,0.3-0.1c0.7-0.1,1.3-0.3,2-0.4c0.1,0,0.2,0,0.3-0.1
		c1.5-0.4,2.9-0.9,4.2-1.4c0,0,0.1,0,0.1-0.1c1.4-0.6,2.7-1.2,3.9-2l0,0c3-5.1,4.6-11.3,4.6-18.4c0-20-13-33-33-33
		c-7.1,0-13.3,1.6-18.4,4.6l0,0c-0.7,1.2-1.4,2.6-2,3.9c0,0,0,0.1-0.1,0.1c-0.5,1.4-1,2.8-1.4,4.2c0,0.1,0,0.2-0.1,0.3
		c-0.2,0.6-0.3,1.3-0.4,2c0,0.1,0,0.2-0.1,0.3c-0.1,0.7-0.2,1.5-0.3,2.2c0,0.1,0,0.2,0,0.3c-0.1,0.6-0.1,1.3-0.2,1.9
		c0,0.2,0,0.4,0,0.6c0,0.8-0.1,1.6-0.1,2.3c0,20,13,33,33,33c0.8,0,1.6,0,2.3-0.1C610.5,145.9,610.7,145.9,611,145.9L611,145.9z"/>
</g>
</svg>
